<svg xmlns="http://www.w3.org/2000/svg" viewBox="0 0 480 480" fill="none">
  <defs><pattern id="grid" width="32" height="32" patternUnits="userSpaceOnUse"><path d="M32 0H0V32" stroke="#B9A77E" stroke-opacity=".1"/></pattern><linearGradient id="metal" x1="120" y1="200" x2="360" y2="330"><stop stop-color="#738078"/><stop offset="1" stop-color="#29342E"/></linearGradient></defs>
  <rect width="480" height="480" fill="#171613"/><rect width="480" height="480" fill="url(#grid)"/>
  <circle cx="240" cy="248" r="166" fill="#17C0A8" fill-opacity=".04"/>
  <path d="M61 286h112m134 0h112" stroke="#17C0A8" stroke-width="12" stroke-linecap="round"/>
  <path d="M175 220h130l46 66-46 66H175l-46-66 46-66Z" fill="url(#metal)" stroke="#A0AAA3" stroke-width="5"/>
  <path d="m187 252 53 34-53 34m106-68-53 34 53 34" stroke="#F0A92C" stroke-width="7" stroke-linejoin="round"/>
  <path d="M240 220v-81m0 0h63m-63 0v-31" stroke="#97A39B" stroke-width="9" stroke-linecap="round" stroke-linejoin="round"/>
  <rect x="211" y="71" width="58" height="41" rx="8" fill="#344139" stroke="#17C0A8" stroke-width="4"/>
  <path d="M96 274v24m288-24v24M157 190h-38m242 0h-38" stroke="#D5A54B" stroke-width="5"/>
</svg>
